<?xml version="1.0" encoding="iso-8859-1"?>
<!-- Generator: Adobe Illustrator 19.0.0, SVG Export Plug-In . SVG Version: 6.00 Build 0)  -->
<svg version="1.1" id="Capa_1" xmlns="http://www.w3.org/2000/svg" xmlns:xlink="http://www.w3.org/1999/xlink" x="0px" y="0px"
	 viewBox="0 0 512 512" style="enable-background:new 0 0 512 512;" xml:space="preserve">
<g>
	<circle style="fill:#AAC4DA;" cx="416" cy="170.66" r="32"/>
	<circle style="fill:#AAC4DA;" cx="352" cy="170.66" r="32"/>
	<path style="fill:#AAC4DA;" d="M64,149.327h64v42.667H64V149.327z"/>
</g>
<path style="fill:#F2F2F2;" d="M64,266.66h384v42.667H64V266.66z"/>
<path style="fill:#FFE451;" d="M384,170.66c0,17.673,14.327,32,32,32s32-14.327,32-32s-14.327-32-32-32S384,152.987,384,170.66
	c0-17.673-14.327-32-32-32s-32,14.327-32,32s14.327,32,32,32S384,188.333,384,170.66z M501.333,117.327v298.667
	c-0.035,11.768-9.566,21.298-21.333,21.333H32c-11.767-0.035-21.298-9.566-21.333-21.333V117.327
	C10.702,105.559,20.233,96.028,32,95.993h448C491.768,96.028,501.298,105.559,501.333,117.327z M448,309.327V266.66H64v42.667H448z
	 M128,191.993v-42.667H64v42.667H128z"/>
<circle style="fill:#31E8BB;" cx="181.333" cy="138.66" r="117.333"/>
<g>
	<path style="fill:#4C5B66;" d="M469.333,432.911v-48.917c0.502-17.171-13.01-31.498-30.181-32c-0.606-0.018-1.213-0.018-1.819,0
		H330.667v21.333h106.667c5.365-0.527,10.14,3.395,10.667,8.76c0.062,0.634,0.062,1.273,0,1.907v48.917l-24.459-24.459
		l-15.083,15.083l42.667,42.667c4.165,4.164,10.917,4.164,15.083,0l42.667-42.667l-15.083-15.083L469.333,432.911z"/>
	<path style="fill:#4C5B66;" d="M309.333,469.327v-48.917l24.459,24.459l15.083-15.083l-42.667-42.667
		c-4.165-4.164-10.917-4.164-15.083,0l-42.667,42.667l15.083,15.083L288,420.409v48.917c-0.502,17.171,13.01,31.498,30.181,32
		c0.606,0.018,1.213,0.018,1.819,0h106.667v-21.333H320c-5.365,0.527-10.14-3.395-10.667-8.76
		C309.271,470.599,309.271,469.961,309.333,469.327z"/>
	<path style="fill:#4C5B66;" d="M21.333,415.993V117.327c0-5.891,4.776-10.667,10.667-10.667V85.327c-17.673,0-32,14.327-32,32
		v298.667c0,17.673,14.327,32,32,32h192V426.66H32C26.109,426.66,21.333,421.884,21.333,415.993z"/>
	<path style="fill:#4C5B66;" d="M480,85.327H330.667v21.333H480c5.891,0,10.667,4.776,10.667,10.667v266.667H512V117.327
		C512,99.654,497.673,85.327,480,85.327z"/>
	<path style="fill:#4C5B66;" d="M352,191.993v21.333c12.3-0.038,23.977-5.418,32-14.741c15.423,17.816,42.368,19.756,60.184,4.333
		c17.816-15.423,19.756-42.368,4.333-60.184s-42.368-19.756-60.184-4.333c-1.546,1.339-2.995,2.787-4.333,4.333
		c-8.023-9.324-19.7-14.703-32-14.741v21.333c11.782,0,21.333,9.551,21.333,21.333C373.333,182.442,363.782,191.993,352,191.993z
		 M416,149.327c11.782,0,21.333,9.551,21.333,21.333c0,11.782-9.551,21.333-21.333,21.333c-11.782,0-21.333-9.551-21.333-21.333
		C394.667,158.878,404.218,149.327,416,149.327z"/>
	<path style="fill:#4C5B66;" d="M64,319.993h384c5.891,0,10.667-4.776,10.667-10.667V266.66c0-5.891-4.776-10.667-10.667-10.667
		H266.667v21.333h170.667v21.333H74.667v-21.333H96v-21.333H64c-5.891,0-10.667,4.776-10.667,10.667v42.667
		C53.333,315.218,58.109,319.993,64,319.993z"/>
	<path style="fill:#4C5B66;" d="M53.333,351.993h21.333v21.333H53.333V351.993z"/>
	<path style="fill:#4C5B66;" d="M96,351.993h21.333v21.333H96V351.993z"/>
	<path style="fill:#4C5B66;" d="M138.667,351.993h128v21.333h-128V351.993z"/>
	<path style="fill:#4C5B66;" d="M181.333,266.66c70.692,0,128-57.308,128-128s-57.308-128-128-128s-128,57.308-128,128
		C53.41,209.321,110.673,266.584,181.333,266.66z M181.333,31.993C240.244,31.993,288,79.75,288,138.66
		s-47.756,106.667-106.667,106.667S74.667,197.57,74.667,138.66C74.731,79.776,122.45,32.058,181.333,31.993z"/>
	<path style="fill:#4C5B66;" d="M160,191.993h10.667v21.333H192v-21.333h10.667c11.782,0,21.333-9.551,21.333-21.333v-21.333
		c0-11.782-9.551-21.333-21.333-21.333H160V106.66h42.667v10.667H224V106.66c0-11.782-9.551-21.333-21.333-21.333H192V63.993
		h-21.333v21.333H160c-11.782,0-21.333,9.551-21.333,21.333v21.333c0,11.782,9.551,21.333,21.333,21.333h42.667v21.333H160v-10.667
		h-21.333v10.667C138.667,182.442,148.218,191.993,160,191.993z"/>
</g>
<g>
</g>
<g>
</g>
<g>
</g>
<g>
</g>
<g>
</g>
<g>
</g>
<g>
</g>
<g>
</g>
<g>
</g>
<g>
</g>
<g>
</g>
<g>
</g>
<g>
</g>
<g>
</g>
<g>
</g>
</svg>
